# xmcd CD database file
#
# Track frame offsets:
#	150
#	11530
#	21660
#	31721
#	42970
#	53794
#	65892
#	76435
#	88061
#	99510
#	110040
#	120688
#	132730
#	143491
#	153201
#	162308
#	171857
#	182874
#	192512
#	201345
#	213139
#	227993
#	240896
#	252806
#	263413
#	275913
#	286717
#	298203
#	309056
#	319065
#	329497
#
# Disc length: 4534 seconds
#
# Revision: 0
# Processed by: cddbd v1.5.2PL0 Copyright (c) Steve Scherf et al.
# Submitted via: CDex 1.70beta2
#
DISCID=c611b41f
DTITLE=Williams,Leona - Yes, Ma´m, He Found Me In A Honky Tonk [CD 1)
DYEAR=2013
DGENRE=Country
TTITLE0=A Woman's Man 
TTITLE1=Ten Minutes Till Heartaches 
TTITLE2=Broadminded 
TTITLE3=I Just Wanted You To Be Proud Of Me 
TTITLE4=I Narrowed This Triangle (Down To Two) 
TTITLE5=Papa's Medicine Show 
TTITLE6=I Want Some More Of This 
TTITLE7=Once More 
TTITLE8=If I'd Only Listened To Mama And Dad 
TTITLE9=This Ain't A Home No More 
TTITLE10=They'll Never Take His Love From Me 
TTITLE11=Just Because Of You 
TTITLE12=The Circle Of Friends 
TTITLE13=When I Stop Dreaming 
TTITLE14=Baby, We're Really In Love
TTITLE15=Watch Her Go 
TTITLE16=Yes, Ma'm (He Found Me In A Honky Tonk) 
TTITLE17=Babe, Just For You 
TTITLE18=So Goes My World 
TTITLE19=Somewhere Inside 
TTITLE20=The Old Place Is Gone
TTITLE21=Listen Spot 
TTITLE22=He's Just You Made Over 
TTITLE23=Country Girl With Hot Pants On 
TTITLE24=Country Music In My Soul 
TTITLE25=Since I'm Not With The One I Love (I'll Love The One I'm With)
TTITLE26=The Boys And Lucy Brown 
TTITLE27=A Gentleman On My Mind 
TTITLE28=Tom Lucus 
TTITLE29=A Woman's Life Is More Than Just A Man 
TTITLE30=Happy Anniversary, Baby
EXTD=YEAR: 2013
EXTT0=
EXTT1=
EXTT2=
EXTT3=
EXTT4=
EXTT5=
EXTT6=
EXTT7=
EXTT8=
EXTT9=
EXTT10=
EXTT11=
EXTT12=
EXTT13=
EXTT14=
EXTT15=
EXTT16=
EXTT17=
EXTT18=
EXTT19=
EXTT20=
EXTT21=
EXTT22=
EXTT23=
EXTT24=
EXTT25=
EXTT26=
EXTT27=
EXTT28=
EXTT29=
EXTT30=
PLAYORDER=
